<svg width="108" height="16" viewBox="0 0 108 16" fill="none" xmlns="http://www.w3.org/2000/svg">
<path d="M21.75 0.25H2.25C1.14543 0.25 0.25 1.14543 0.25 2.25V13.75C0.25 14.8546 1.14543 15.75 2.25 15.75H21.75C22.8546 15.75 23.75 14.8546 23.75 13.75V2.25C23.75 1.14543 22.8546 0.25 21.75 0.25Z" fill="white" stroke="black" stroke-opacity="0.2" stroke-width="0.5"/>
<path d="M2.78773 5.91444C2.26459 5.62751 1.66754 5.39674 1 5.23659L1.028 5.11188H3.76498C4.13596 5.12489 4.43699 5.23651 4.53495 5.63071L5.12977 8.46659L5.31198 9.32073L6.97797 5.11188H8.77679L6.10288 11.2775H4.30397L2.78773 5.91444ZM10.1 11.2841H8.39883L9.46285 5.11188H11.1639L10.1 11.2841ZM16.2668 5.26277L16.0354 6.59559L15.8816 6.53004C15.5737 6.40525 15.1674 6.28054 14.6144 6.29371C13.9427 6.29371 13.6415 6.56277 13.6345 6.82546C13.6345 7.11441 13.9989 7.30484 14.5939 7.58725C15.574 8.02719 16.0286 8.56557 16.0218 9.26819C16.0081 10.5486 14.846 11.3761 13.0611 11.3761C12.2979 11.3694 11.5628 11.2181 11.1638 11.0476L11.4019 9.66205L11.6259 9.76066C12.1789 9.99071 12.5428 10.089 13.222 10.089C13.7118 10.089 14.2369 9.89838 14.2436 9.48488C14.2436 9.21565 14.0199 9.01851 13.3617 8.71646C12.7178 8.42087 11.8568 7.92848 11.8708 7.04198C11.8781 5.84042 13.0611 5 14.741 5C15.399 5 15.9312 5.13789 16.2668 5.26277ZM18.5278 9.09749H19.9417C19.8718 8.78889 19.5496 7.31147 19.5496 7.31147L19.4307 6.77964C19.3467 7.00943 19.1999 7.38373 19.2069 7.37056C19.2069 7.37056 18.6678 8.7429 18.5278 9.09749ZM20.6276 5.11188L22 11.284H20.4249C20.4249 11.284 20.2708 10.5748 20.2219 10.3581H18.0378C17.9746 10.5222 17.6808 11.284 17.6808 11.284H15.8958L18.4226 5.62399C18.5977 5.22342 18.906 5.11188 19.3118 5.11188H20.6276Z" fill="#1434CB"/>
<path d="M50 0H30C28.8954 0 28 0.89543 28 2V14C28 15.1046 28.8954 16 30 16H50C51.1046 16 52 15.1046 52 14V2C52 0.89543 51.1046 0 50 0Z" fill="#252525"/>
<path d="M37 13C39.7614 13 42 10.7614 42 8C42 5.23858 39.7614 3 37 3C34.2386 3 32 5.23858 32 8C32 10.7614 34.2386 13 37 13Z" fill="#EB001B"/>
<path d="M43 13C45.7614 13 48 10.7614 48 8C48 5.23858 45.7614 3 43 3C40.2386 3 38 5.23858 38 8C38 10.7614 40.2386 13 43 13Z" fill="#F79E1B"/>
<path fill-rule="evenodd" clip-rule="evenodd" d="M40 3.99951C41.2144 4.91172 42 6.36406 42 7.99988C42 9.6357 41.2144 11.088 40 12.0002C38.7856 11.088 38 9.6357 38 7.99988C38 6.36406 38.7856 4.91172 40 3.99951Z" fill="#FF5F00"/>
<path d="M78 0H58C56.8954 0 56 0.89543 56 2V14C56 15.1046 56.8954 16 58 16H78C79.1046 16 80 15.1046 80 14V2C80 0.89543 79.1046 0 78 0Z" fill="#016FD0"/>
<path fill-rule="evenodd" clip-rule="evenodd" d="M69.7637 13.3938V7.69238L79.9112 7.70149V9.27638L78.7383 10.5298L79.9112 11.7947V13.403H78.0386L77.0434 12.3048L76.0553 13.4071L69.7637 13.3938Z" fill="#FFFFFE"/>
<path fill-rule="evenodd" clip-rule="evenodd" d="M70.4414 12.7687V8.31982H74.2137V9.34471H71.6628V10.0404H74.1529V11.0482H71.6628V11.7315H74.2137V12.7687H70.4414Z" fill="#016FD0"/>
<path fill-rule="evenodd" clip-rule="evenodd" d="M74.1954 12.7686L76.2827 10.5416L74.1953 8.31982H75.811L77.0865 9.72986L78.3656 8.31982H79.9117V8.35483L77.8689 10.5416L79.9117 12.7055V12.7686H78.35L77.0519 11.3444L75.7671 12.7686H74.1954Z" fill="#016FD0"/>
<path fill-rule="evenodd" clip-rule="evenodd" d="M70.2369 2.63184H72.6829L73.5421 4.58269V2.63184H76.5619L77.0827 4.09341L77.6052 2.63184H79.9111V8.33323H67.7246L70.2369 2.63184Z" fill="#FFFFFE"/>
<path fill-rule="evenodd" clip-rule="evenodd" d="M70.7006 3.25098L68.7266 7.69615H70.0805L70.4529 6.80598H72.4708L72.843 7.69615H74.2306L72.2648 3.25098H70.7006ZM70.8702 5.80841L71.4622 4.39334L72.0538 5.80841H70.8702Z" fill="#016FD0"/>
<path fill-rule="evenodd" clip-rule="evenodd" d="M74.2119 7.69557V3.25049L76.115 3.25703L77.0943 5.98976L78.0799 3.25049H79.9115V7.69557L78.7329 7.706V4.65265L77.6204 7.69557H76.5446L75.4089 4.64222V7.69557H74.2119Z" fill="#016FD0"/>
<path d="M88.5459 0H94.3396C95.1484 0 95.6514 0.725665 95.4627 1.61891L92.7653 14.3675C92.575 15.2576 91.7652 15.9839 90.9559 15.9839H85.1627C84.3551 15.9839 83.8509 15.2576 84.0396 14.3675L86.7381 1.61891C86.9268 0.725665 87.7361 0 88.5459 0Z" fill="#DD2423"/>
<path d="M93.858 0H100.521C101.329 0 100.965 0.725665 100.774 1.61891L98.0775 14.3675C97.8882 15.2576 97.9473 15.9839 97.137 15.9839H90.4743C89.6639 15.9839 89.1625 15.2576 89.3528 14.3675L92.0497 1.61891C92.2412 0.725665 93.0488 0 93.858 0Z" fill="#16315E"/>
<path d="M100.256 0H106.05C106.86 0 107.363 0.725665 107.173 1.61891L104.476 14.3675C104.285 15.2576 103.475 15.9839 102.665 15.9839H96.8741C96.0638 15.9839 95.5612 15.2576 95.751 14.3675L98.4484 1.61891C98.6371 0.725665 99.4459 0 100.256 0Z" fill="#036862"/>
<path d="M90.0594 4.0855C89.4636 4.09218 89.2876 4.0855 89.2314 4.07089C89.2098 4.1839 88.8077 6.22549 88.8066 6.2272C88.72 6.64025 88.6571 6.93468 88.4431 7.1248C88.3217 7.23533 88.1799 7.28865 88.0155 7.28865C87.7513 7.28865 87.5974 7.14423 87.5715 6.87032L87.5666 6.77627C87.5666 6.77627 87.6471 6.22301 87.6471 6.2199C87.6471 6.2199 88.069 4.35941 88.1446 4.11348C88.1485 4.09949 88.1497 4.09218 88.1506 4.0855C87.3293 4.09343 87.1837 4.0855 87.1737 4.07089C87.1682 4.09094 87.1479 4.20629 87.1479 4.20629L86.717 6.30322L86.68 6.48106L86.6084 7.06277C86.6084 7.23533 86.6392 7.37617 86.7005 7.49525C86.8968 7.87285 87.4567 7.92944 87.7735 7.92944C88.1816 7.92944 88.5644 7.83399 88.8231 7.65972C89.2722 7.36762 89.3897 6.91105 89.4945 6.50531L89.5431 6.29716C89.5431 6.29716 89.9777 4.36485 90.0516 4.11348C90.0544 4.09949 90.0555 4.09218 90.0594 4.0855ZM91.5383 5.64431C91.4335 5.64431 91.242 5.67229 91.07 5.7651C91.0076 5.80039 90.9486 5.84112 90.8863 5.88169L90.9425 5.6583L90.9117 5.62068C90.5469 5.70198 90.4653 5.71286 90.1284 5.7651L90.1001 5.78577C90.061 6.14285 90.0263 6.41132 89.8812 7.1132C89.826 7.37188 89.7687 7.63305 89.7112 7.8911L89.7267 7.9239C90.072 7.90385 90.1768 7.90385 90.4769 7.90929L90.5012 7.88022C90.5393 7.66523 90.5443 7.61486 90.6287 7.17943C90.6684 6.97298 90.7511 6.51937 90.792 6.35785C90.8669 6.31961 90.9409 6.28199 91.0116 6.28199C91.1797 6.28199 91.1593 6.4435 91.1528 6.50786C91.1456 6.6159 91.0843 6.96879 91.0214 7.27177L90.9795 7.46733C90.9503 7.61175 90.9182 7.75213 90.889 7.8953L90.9017 7.9239C91.242 7.90385 91.3458 7.90385 91.6364 7.90929L91.6706 7.88022C91.7232 7.54444 91.7385 7.45458 91.8317 6.96568L91.8786 6.74104C91.9697 6.30142 92.0155 6.0785 91.9466 5.89692C91.8737 5.69343 91.6989 5.64431 91.5383 5.64431ZM93.1904 6.1046C93.0095 6.14284 92.8942 6.16833 92.7795 6.18481C92.6658 6.20486 92.555 6.22305 92.3801 6.24979L92.3663 6.26363L92.3536 6.27466C92.3354 6.41799 92.3227 6.54189 92.2985 6.68755C92.278 6.83819 92.2465 7.00934 92.1953 7.25527C92.1556 7.44353 92.1351 7.50913 92.1125 7.57536C92.0905 7.64158 92.0662 7.70594 92.0216 7.89109L92.032 7.90819L92.0408 7.92389C92.2042 7.91534 92.3111 7.90927 92.4209 7.90819C92.5307 7.90383 92.6443 7.90819 92.8203 7.90927L92.8357 7.89544L92.8522 7.8802C92.8776 7.71325 92.8815 7.66832 92.897 7.58686C92.9124 7.49949 92.9389 7.37855 93.004 7.05552C93.0348 6.90379 93.0691 6.75253 93.101 6.5977C93.1342 6.44349 93.169 6.29161 93.202 6.13988L93.1971 6.12154L93.1904 6.1046ZM93.1943 5.48399C93.0299 5.37719 92.7414 5.41108 92.5472 5.55861C92.3536 5.70318 92.3316 5.90838 92.4954 6.01658C92.657 6.12042 92.9466 6.08949 93.1391 5.94072C93.3323 5.79303 93.3564 5.5897 93.1943 5.48399ZM94.1884 7.95736C94.521 7.95736 94.8619 7.85647 95.1185 7.55706C95.3159 7.31424 95.4064 6.95296 95.4378 6.80419C95.5399 6.31109 95.4604 6.08086 95.3605 5.94064C95.2088 5.72689 94.9408 5.65833 94.6628 5.65833C94.4956 5.65833 94.0973 5.67652 93.7862 5.99225C93.5628 6.21999 93.4596 6.52904 93.3973 6.82533C93.3345 7.12723 93.2622 7.6707 93.7162 7.87294C93.8563 7.93917 94.0582 7.95736 94.1884 7.95736ZM94.1624 6.84787C94.2391 6.47447 94.3296 6.16107 94.5607 6.16107C94.7417 6.16107 94.7548 6.39426 94.6743 6.7689C94.6599 6.85207 94.5938 7.16127 94.5045 7.29294C94.442 7.3901 94.3682 7.44902 94.2866 7.44902C94.2623 7.44902 94.1178 7.44902 94.1155 7.21288C94.1144 7.09629 94.136 6.97721 94.1624 6.84787ZM96.2691 7.90934L96.2951 7.88027C96.332 7.66527 96.338 7.61475 96.4197 7.17947C96.4605 6.97303 96.5449 6.51941 96.5846 6.35789C96.6597 6.3195 96.7325 6.28188 96.8053 6.28188C96.9724 6.28188 96.9521 6.44339 96.9454 6.50775C96.9393 6.61595 96.8781 6.96868 96.8141 7.27166L96.7744 7.46722C96.744 7.6118 96.711 7.75202 96.6818 7.89535L96.6945 7.92395C97.0359 7.9039 97.1358 7.9039 97.4281 7.90934L97.4634 7.88027C97.5147 7.54433 97.5285 7.45447 97.6245 6.96572L97.6703 6.74094C97.7618 6.30131 97.8081 6.07854 97.7403 5.89697C97.6653 5.69348 97.4894 5.64436 97.3311 5.64436C97.2262 5.64436 97.0337 5.67218 96.8627 5.76514C96.8015 5.80043 96.7402 5.84101 96.6801 5.88174L96.7325 5.65835L96.7044 5.62057C96.3397 5.70203 96.2564 5.71291 95.9199 5.76514L95.894 5.78582C95.8532 6.1429 95.82 6.41122 95.675 7.11325C95.6198 7.37193 95.5625 7.63309 95.5051 7.89115L95.5205 7.92395C95.8664 7.9039 95.9696 7.9039 96.2691 7.90934ZM98.7779 7.92387C98.7994 7.80852 98.9269 7.12483 98.9281 7.12483C98.9281 7.12483 99.0366 6.62318 99.0433 6.60499C99.0433 6.60499 99.0775 6.55276 99.1116 6.53208H99.1619C99.6363 6.53208 100.172 6.53208 100.592 6.1921C100.877 5.95892 101.073 5.61459 101.16 5.1961C101.182 5.0935 101.199 4.97147 101.199 4.84944C101.199 4.68916 101.17 4.5306 101.085 4.4067C100.871 4.07698 100.445 4.07092 99.9529 4.06843C99.9513 4.06843 99.7103 4.07092 99.7103 4.07092C99.0803 4.07947 98.8276 4.07698 98.7239 4.06299C98.7151 4.11351 98.6986 4.20336 98.6986 4.20336C98.6986 4.20336 98.4729 5.35466 98.4729 5.35653C98.4729 5.35653 97.9329 7.80433 97.9075 7.91967C98.4575 7.91237 98.683 7.91237 98.7779 7.92387ZM99.1961 5.8787C99.1961 5.8787 99.436 4.72974 99.4349 4.73409L99.4427 4.67517L99.446 4.63024L99.5419 4.64113C99.5419 4.64113 100.037 4.68792 100.048 4.68916C100.244 4.77233 100.324 4.9867 100.268 5.26652C100.217 5.52225 100.066 5.73724 99.8724 5.84108C99.7129 5.92907 99.5176 5.93638 99.3164 5.93638H99.1862L99.1961 5.8787ZM100.69 6.86916C100.627 7.1667 100.554 7.71017 101.005 7.90386C101.149 7.97133 101.279 7.99139 101.41 7.98408C101.548 7.97584 101.677 7.89936 101.796 7.78929C101.785 7.83453 101.774 7.87977 101.763 7.92516L101.784 7.95423C102.109 7.93915 102.21 7.93915 102.562 7.94211L102.594 7.91537C102.645 7.58269 102.693 7.25966 102.827 6.62323C102.892 6.31838 102.957 6.01648 103.024 5.71288L103.013 5.67946C102.65 5.75361 102.553 5.76947 102.203 5.82403L102.177 5.84782C102.173 5.87875 102.169 5.90844 102.166 5.93813C102.112 5.84144 102.033 5.7589 101.911 5.70744C101.756 5.64013 101.391 5.72687 101.077 6.04151C100.856 6.26615 100.75 6.57395 100.69 6.86916ZM101.453 6.88734C101.531 6.52063 101.621 6.21034 101.852 6.21034C101.999 6.21034 102.076 6.35911 102.06 6.61281C102.048 6.67608 102.034 6.74277 102.018 6.81817C101.995 6.92714 101.97 7.03518 101.946 7.14338C101.921 7.21737 101.892 7.28717 101.86 7.33366C101.8 7.42662 101.659 7.48429 101.577 7.48429C101.554 7.48429 101.411 7.48429 101.406 7.25235C101.405 7.13685 101.426 7.01793 101.453 6.88734ZM105.44 5.67649L105.412 5.6412C105.052 5.72141 104.987 5.73416 104.657 5.78329L104.632 5.81002C104.631 5.81438 104.63 5.82106 104.629 5.82712L104.627 5.82106C104.381 6.44584 104.389 6.31106 104.188 6.80292C104.187 6.78053 104.187 6.76654 104.186 6.74275L104.136 5.67649L104.105 5.6412C103.728 5.72141 103.719 5.73416 103.371 5.78329L103.344 5.81002C103.34 5.82277 103.34 5.83676 103.338 5.852L103.34 5.85744C103.383 6.10212 103.373 6.04756 103.417 6.43371C103.437 6.62321 103.464 6.8138 103.484 7.00097C103.519 7.31421 103.538 7.46842 103.58 7.94644C103.345 8.37332 103.289 8.53484 103.063 8.90949L103.065 8.91322L102.905 9.19055C102.887 9.21978 102.871 9.23983 102.847 9.24838C102.822 9.26222 102.789 9.2647 102.743 9.2647H102.655L102.524 9.74506L102.974 9.75361C103.238 9.75237 103.404 9.61634 103.493 9.43353L103.776 8.89969H103.772L103.802 8.86207C103.992 8.41094 105.44 5.67649 105.44 5.67649ZM100.69 11.9852H100.499L101.206 9.41231H101.44L101.515 9.14726L101.522 9.442C101.513 9.62419 101.643 9.78571 101.985 9.75897H102.381L102.517 9.26354H102.368C102.282 9.26354 102.243 9.23975 102.248 9.18876L102.241 8.88889H101.508V8.89045C101.271 8.89589 100.564 8.91547 100.421 8.95745C100.248 9.00657 100.065 9.15114 100.065 9.15114L100.137 8.88578H99.4515L99.3087 9.41231L98.5926 12.0246H98.4536L98.3173 12.5164H99.6821L99.6363 12.6804H100.309L100.353 12.5164H100.542L100.69 11.9852ZM100.13 9.9351C100.02 9.96853 99.8161 10.0699 99.8161 10.0699L99.9977 9.41231H100.542L100.411 9.89142C100.411 9.89142 100.243 9.9023 100.13 9.9351ZM100.14 10.8745C100.14 10.8745 99.9694 10.8981 99.8569 10.9261C99.746 10.9631 99.5382 11.0797 99.5382 11.0797L99.7257 10.3954H100.273L100.14 10.8745ZM99.8354 11.9913H99.2893L99.4476 11.4138H99.992L99.8354 11.9913ZM101.151 10.3954H101.938L101.825 10.7987H101.027L100.907 11.2395H101.605L101.077 12.0586C101.04 12.1188 101.006 12.1401 100.97 12.157C100.933 12.1777 100.884 12.202 100.828 12.202H100.634L100.501 12.6848H101.008C101.271 12.6848 101.426 12.553 101.541 12.3799L101.904 11.834L101.981 12.3883C101.998 12.4922 102.066 12.553 102.112 12.5766C102.162 12.6046 102.215 12.6526 102.289 12.6598C102.368 12.6635 102.425 12.6665 102.463 12.6665H102.712L102.862 12.1261H102.764C102.707 12.1261 102.61 12.1157 102.594 12.0962C102.577 12.0726 102.577 12.0362 102.568 11.9809L102.489 11.4253H102.166L102.308 11.2395H103.104L103.226 10.7987H102.489L102.604 10.3954H103.339L103.475 9.89811H101.285L101.151 10.3954ZM94.5022 12.1036L94.6859 11.4308H95.441L95.579 10.9304H94.8232L94.9386 10.5162H95.6772L95.814 10.0317H93.966L93.832 10.5162H94.2518L94.1399 10.9304H93.7189L93.5794 11.4393H93.9991L93.7542 12.3295C93.7211 12.4473 93.7697 12.4922 93.8005 12.547C93.832 12.6003 93.8639 12.6356 93.9357 12.6556C94.0096 12.6738 94.0603 12.6847 94.1293 12.6847H94.9805L95.1322 12.1303L94.7549 12.1874C94.682 12.1874 94.4802 12.1777 94.5022 12.1036ZM94.5888 8.88275L94.3975 9.26346C94.3565 9.34663 94.3197 9.39824 94.2865 9.42202C94.2572 9.44208 94.1993 9.45047 94.1155 9.45047H94.0156L93.8822 9.93751H94.2138C94.3732 9.93751 94.4956 9.87316 94.5541 9.84098C94.6169 9.80398 94.6335 9.82512 94.682 9.77351L94.794 9.66671H95.8294L95.9668 9.15962H95.2089L95.3412 8.88275H94.5888ZM96.1174 12.1134C96.0998 12.0854 96.1125 12.0361 96.1395 11.9335L96.4225 10.9024H97.4292C97.5759 10.9 97.6819 10.8982 97.7508 10.8927C97.8248 10.8842 97.9053 10.8551 97.993 10.8029C98.0835 10.7482 98.1298 10.6905 98.1689 10.6243C98.2126 10.5582 98.2826 10.4136 98.3428 10.1907L98.6985 8.88581L97.6538 8.8925C97.6538 8.8925 97.3321 8.94473 97.1904 9.0024C97.0475 9.06676 96.8433 9.24647 96.8433 9.24647L96.9376 8.88877H96.2923L95.3887 12.1874C95.3567 12.3155 95.3352 12.4084 95.3303 12.4642C95.3286 12.5244 95.3992 12.5839 95.445 12.6289C95.499 12.6738 95.579 12.6665 95.6557 12.6738C95.7363 12.6805 95.851 12.6847 96.0093 12.6847H96.5052L96.6575 12.1188L96.2135 12.165C96.166 12.165 96.1317 12.137 96.1174 12.1134ZM96.6051 10.2059H97.6625L97.5953 10.4379C97.5858 10.4433 97.5632 10.4264 97.4556 10.4404H96.54L96.6051 10.2059ZM96.8169 9.42804H97.8832L97.8066 9.70739C97.8066 9.70739 97.304 9.70195 97.2235 9.71828C96.8693 9.78574 96.6624 9.99405 96.6624 9.99405L96.8169 9.42804ZM97.619 11.2146C97.6102 11.2492 97.5964 11.2704 97.577 11.2862C97.5555 11.3015 97.5208 11.3069 97.469 11.3069H97.3183L97.3272 11.0245H96.7005L96.6751 12.4054C96.6741 12.505 96.6828 12.5627 96.7491 12.6089C96.8153 12.6665 97.0193 12.6738 97.294 12.6738H97.6867L97.8285 12.1569L97.4866 12.1776L97.373 12.1849C97.3574 12.1776 97.3426 12.1709 97.3261 12.1527C97.3117 12.137 97.2874 12.1467 97.2913 12.047L97.294 11.6931L97.6526 11.6767C97.8462 11.6767 97.9289 11.6074 97.9995 11.5413C98.0669 11.4781 98.0889 11.4053 98.1144 11.3069L98.1745 10.9935H97.6818L97.619 11.2146Z" fill="#FEFEFE"/>
</svg>
