<svg width="75" height="20" viewBox="0 0 75 20" fill="none" xmlns="http://www.w3.org/2000/svg">
<path d="M28.0563 4.0903H23.9114C23.6278 4.0903 23.3866 4.29636 23.3423 4.57636L21.666 15.2048C21.6326 15.4145 21.7951 15.6036 22.0078 15.6036H23.9866C24.2702 15.6036 24.5114 15.3976 24.5557 15.117L25.0078 12.2503C25.0514 11.9697 25.2932 11.7636 25.5763 11.7636H26.8884C29.6187 11.7636 31.1945 10.4424 31.606 7.82424C31.7914 6.67879 31.6138 5.77879 31.0775 5.14848C30.4884 4.45636 29.4435 4.0903 28.0563 4.0903ZM28.5345 7.97212C28.3078 9.45939 27.1714 9.45939 26.0726 9.45939H25.4472L25.886 6.68182C25.912 6.51394 26.0575 6.3903 26.2272 6.3903H26.5139C27.2623 6.3903 27.9684 6.3903 28.3332 6.81697C28.5508 7.07151 28.6175 7.4497 28.5345 7.97212Z" fill="#253B80"/>
<path d="M40.446 7.92425H38.4611C38.292 7.92425 38.146 8.04788 38.1199 8.21576L38.032 8.77091L37.8932 8.5697C37.4635 7.94606 36.5054 7.73758 35.549 7.73758C33.3557 7.73758 31.4823 9.39879 31.1175 11.7291C30.9278 12.8915 31.1975 14.003 31.8569 14.7782C32.4617 15.4909 33.3272 15.7879 34.3569 15.7879C36.1241 15.7879 37.1041 14.6515 37.1041 14.6515L37.0157 15.203C36.9823 15.4139 37.1448 15.603 37.3563 15.603H39.1441C39.4284 15.603 39.6684 15.397 39.7132 15.1164L40.786 8.32303C40.8199 8.11394 40.6581 7.92425 40.446 7.92425ZM37.6793 11.7873C37.4878 12.9212 36.5878 13.6824 35.4399 13.6824C34.8635 13.6824 34.4029 13.4976 34.1072 13.1473C33.8138 12.7994 33.7023 12.3042 33.7957 11.7527C33.9745 10.6285 34.8896 9.84243 36.0199 9.84243C36.5835 9.84243 37.0417 10.0297 37.3435 10.383C37.646 10.74 37.766 11.2382 37.6793 11.7873Z" fill="#253B80"/>
<path d="M51.0169 7.92424H49.0224C48.8321 7.92424 48.6533 8.01879 48.5454 8.17697L45.7945 12.2291L44.6285 8.33515C44.5551 8.09151 44.3303 7.92424 44.0757 7.92424H42.1157C41.8775 7.92424 41.7121 8.15697 41.7878 8.38121L43.9848 14.8285L41.9194 17.7442C41.7569 17.9739 41.9206 18.2897 42.2012 18.2897H44.1933C44.3824 18.2897 44.5594 18.1976 44.6666 18.0424L51.3006 8.46666C51.4594 8.23757 51.2963 7.92424 51.0169 7.92424Z" fill="#253B80"/>
<path d="M57.6205 4.0903H53.475C53.192 4.0903 52.9508 4.29636 52.9065 4.57636L51.2302 15.2048C51.1968 15.4145 51.3593 15.6036 51.5708 15.6036H53.6981C53.8956 15.6036 54.0647 15.4594 54.0956 15.263L54.5714 12.2503C54.615 11.9697 54.8569 11.7636 55.1399 11.7636H56.4514C59.1823 11.7636 60.7575 10.4424 61.1696 7.82424C61.3556 6.67879 61.1768 5.77879 60.6405 5.14848C60.052 4.45636 59.0078 4.0903 57.6205 4.0903ZM58.0987 7.97212C57.8726 9.45939 56.7362 9.45939 55.6369 9.45939H55.012L55.4514 6.68182C55.4775 6.51394 55.6217 6.3903 55.792 6.3903H56.0787C56.8265 6.3903 57.5332 6.3903 57.8981 6.81697C58.1156 7.07151 58.1817 7.4497 58.0987 7.97212Z" fill="#179BD7"/>
<path d="M70.0095 7.92425H68.0259C67.8556 7.92425 67.7107 8.04788 67.6853 8.21576L67.5974 8.77091L67.458 8.5697C67.0283 7.94606 66.0707 7.73758 65.1144 7.73758C62.9211 7.73758 61.0483 9.39879 60.6835 11.7291C60.4944 12.8915 60.7629 14.003 61.4223 14.7782C62.0283 15.4909 62.8926 15.7879 63.9223 15.7879C65.6895 15.7879 66.6695 14.6515 66.6695 14.6515L66.5811 15.203C66.5477 15.4139 66.7101 15.603 66.9229 15.603H68.7101C68.9932 15.603 69.2344 15.397 69.2786 15.1164L70.352 8.32303C70.3847 8.11394 70.2223 7.92425 70.0095 7.92425ZM67.2429 11.7873C67.0526 12.9212 66.1514 13.6824 65.0035 13.6824C64.4283 13.6824 63.9665 13.4976 63.6707 13.1473C63.3774 12.7994 63.2671 12.3042 63.3592 11.7527C63.5392 10.6285 64.4532 9.84243 65.5835 9.84243C66.1471 9.84243 66.6053 10.0297 66.9071 10.383C67.2108 10.74 67.3308 11.2382 67.2429 11.7873Z" fill="#179BD7"/>
<path d="M72.3496 4.38181L70.6484 15.2048C70.6151 15.4145 70.7775 15.6036 70.989 15.6036H72.6993C72.9835 15.6036 73.2248 15.3976 73.2684 15.117L74.946 4.48909C74.9793 4.27939 74.8169 4.08969 74.6054 4.08969H72.6902C72.5211 4.0903 72.3757 4.21393 72.3496 4.38181Z" fill="#179BD7"/>
<path d="M4.45323 17.6691L4.7702 15.6558L4.06414 15.6394H0.692627L3.03566 0.78303C3.04293 0.738181 3.06657 0.696363 3.10111 0.666666C3.13566 0.636969 3.1799 0.620605 3.22596 0.620605H8.91081C10.7981 0.620605 12.1005 1.01333 12.7805 1.78848C13.0993 2.15212 13.3023 2.53212 13.4005 2.9503C13.5035 3.38909 13.5054 3.91333 13.4047 4.55273L13.3975 4.59939V5.00909L13.7163 5.1897C13.9847 5.33212 14.1981 5.49515 14.3617 5.68182C14.6344 5.99273 14.8108 6.38788 14.8854 6.85636C14.9623 7.33818 14.9369 7.91151 14.8108 8.56061C14.6654 9.30727 14.4302 9.95758 14.1126 10.4897C13.8205 10.98 13.4484 11.3867 13.0066 11.7018C12.5847 12.0012 12.0835 12.2285 11.5169 12.3739C10.9678 12.517 10.3417 12.5891 9.65505 12.5891H9.21263C8.89626 12.5891 8.58899 12.703 8.34778 12.9073C8.10596 13.1158 7.94596 13.4006 7.89687 13.7121L7.86354 13.8933L7.30354 17.4418L7.27808 17.5721C7.27141 17.6133 7.2599 17.6339 7.24293 17.6479C7.22778 17.6606 7.20596 17.6691 7.18475 17.6691H4.45323Z" fill="#253B80"/>
<path d="M14.018 4.64667C14.0011 4.75515 13.9817 4.86606 13.9598 4.98C13.2101 8.82909 10.6453 10.1588 7.36954 10.1588H5.70167C5.30106 10.1588 4.96348 10.4497 4.90106 10.8448L4.04712 16.2606L3.8053 17.7958C3.7647 18.0552 3.9647 18.2891 4.22651 18.2891H7.1847C7.535 18.2891 7.83257 18.0345 7.88773 17.6891L7.91682 17.5388L8.47379 14.0042L8.50954 13.8103C8.56409 13.4636 8.86227 13.2091 9.21257 13.2091H9.655C12.5211 13.2091 14.7647 12.0455 15.4205 8.67818C15.6944 7.27152 15.5526 6.09697 14.8277 5.27091C14.6083 5.02182 14.3362 4.81515 14.018 4.64667Z" fill="#179BD7"/>
<path d="M13.2338 4.33394C13.1193 4.30061 13.0011 4.2703 12.8799 4.24303C12.7581 4.21637 12.6332 4.19273 12.5048 4.17212C12.0551 4.0994 11.5623 4.06485 11.0345 4.06485H6.5787C6.469 4.06485 6.36476 4.0897 6.27143 4.13455C6.06597 4.23333 5.91324 4.42788 5.87627 4.66606L4.9284 10.6697L4.90112 10.8448C4.96355 10.4497 5.30112 10.1588 5.70173 10.1588H7.36961C10.6454 10.1588 13.2102 8.82849 13.9599 4.98C13.9823 4.86606 14.0011 4.75515 14.0181 4.64667C13.8284 4.54606 13.6229 4.46 13.4017 4.38667C13.3472 4.36849 13.2908 4.35091 13.2338 4.33394Z" fill="#222D65"/>
<path d="M5.87622 4.66606C5.91319 4.42788 6.06592 4.23333 6.27137 4.13515C6.36531 4.0903 6.46895 4.06545 6.57864 4.06545H11.0344C11.5623 4.06545 12.055 4.1 12.5047 4.17273C12.6332 4.19333 12.758 4.21697 12.8799 4.24364C13.0011 4.27091 13.1192 4.30121 13.2338 4.33455C13.2908 4.35152 13.3471 4.36909 13.4023 4.38667C13.6235 4.46 13.8289 4.54667 14.0186 4.64667C14.2417 3.22424 14.0168 2.25576 13.2477 1.37879C12.3999 0.413333 10.8696 0 8.91137 0H3.22652C2.82652 0 2.48531 0.290909 2.42349 0.686667L0.0556144 15.6958C0.00894772 15.9927 0.238039 16.2606 0.537433 16.2606H4.04713L4.92834 10.6697L5.87622 4.66606Z" fill="#253B80"/>
</svg>
